{"scene":0,"asset":{"generator":"ImageToStl.com","version":"2.0"},"scenes":[{"name":"Scene","nodes":[0]}],"nodes":[{"name":"Node0","children":[1,2]},{"name":"Node1","mesh":0},{"name":"Node2","mesh":1}],"materials":[{"name":"Material.001","pbrMetallicRoughness":{"baseColorFactor":[0.399889,0.006658,0.007683,1.0],"metallicFactor":0.5,"roughnessFactor":0.45521545},"emissiveFactor":[0.0,0.0,0.0],"doubleSided":true}],"meshes":[{"name":"Mesh0","primitives":[{"indices":3,"material":0,"attributes":{"POSITION":0,"NORMAL":1,"TEXCOORD_0":2}}]},{"name":"Mesh0","primitives":[{"indices":7,"material":0,"attributes":{"POSITION":4,"NORMAL":5,"TEXCOORD_0":6}}]}],"accessors":[{"bufferView":0,"componentType":5126,"count":637,"type":"VEC3","min":[-1.64,0.0,-0.5],"max":[1.64,3.28,0.5]},{"bufferView":1,"componentType":5126,"count":637,"type":"VEC3"},{"bufferView":2,"componentType":5126,"count":637,"type":"VEC2"},{"bufferView":3,"componentType":5123,"count":10368,"type":"SCALAR"},{"bufferView":4,"componentType":5126,"count":167,"type":"VEC3","min":[-1.637951,3.145723,-0.486],"max":[1.650787,4.327111,0.486]},{"bufferView":5,"componentType":5126,"count":167,"type":"VEC3"},{"bufferView":6,"componentType":5126,"count":167,"type":"VEC2"},{"bufferView":7,"componentType":5123,"count":2412,"type":"SCALAR"}],"bufferViews":[{"target":34962,"buffer":0,"byteLength":7644,"byteOffset":0},{"target":34962,"buffer":0,"byteLength":7644,"byteOffset":7644},{"target":34962,"buffer":0,"byteLength":5096,"byteOffset":15288},{"target":34963,"buffer":0,"byteLength":20736,"byteOffset":20384},{"target":34962,"buffer":0,"byteLength":2004,"byteOffset":41120},{"target":34962,"buffer":0,"byteLength":2004,"byteOffset":43124},{"target":34962,"buffer":0,"byteLength":1336,"byteOffset":45128},{"target":34963,"buffer":0,"byteLength":4824,"byteOffset":46464}],"buffers":[{"byteLength":51288,"uri":"data:application/octet-stream;base64,"}]}